<?xml version="1.0" ?><svg id="Layer_1" style="enable-background:new 0 0 1000 1000;" version="1.1" viewBox="0 0 1000 1000" xml:space="preserve" xmlns="http://www.w3.org/2000/svg" xmlns:xlink="http://www.w3.org/1999/xlink"><style type="text/css">
	.st0{fill:#0078D7;}
	.st1{fill:#FFFFFF;}
</style><title/><g><path class="st0" d="M500,1000L500,1000C223.9,1000,0,776.1,0,500v0C0,223.9,223.9,0,500,0h0c276.1,0,500,223.9,500,500v0   C1000,776.1,776.1,1000,500,1000z"/><path class="st1" d="M501.2,683.6c-101.4,0-147.7-51.6-147.7-89.5c0-19.4,15.2-32.8,34.7-32.8c43.4,0,32.1,65.1,113,65.1   c41.4,0,65.7-24.9,65.7-48.3c0-14.1-8.1-29.7-35.3-36.5l-90.1-22.9c-72.6-18.5-85.3-58.8-85.3-96.3c0-77.8,71.1-105.9,138.8-105.9   c62.4,0,136.5,34.4,136.5,81.1c0,20-16.8,30.9-36.2,30.9c-37,0-30.9-52.1-105.4-52.1c-37,0-56.5,17.3-56.5,41.7   c0,24.3,28.6,32.5,54,38.4l66.7,15c73.1,16.5,92.6,59.4,92.6,100.2C646.5,634.8,597.6,683.6,501.2,683.6 M781,549.8   c2.8-16.2,4.3-32.8,4.3-49.8c0-158.5-127.8-287-285.3-287c-16.9,0-33.5,1.5-49.6,4.3c-24.8-14.3-53.5-22.4-84.1-22.4   c-93.7,0-169.7,76.4-169.7,170.6c0,30.8,8.1,59.7,22.3,84.6c-2.8,16.2-4.3,32.8-4.3,49.8c0,158.5,127.8,287,285.3,287   c16.9,0,33.5-1.5,49.6-4.3c24.8,14.3,53.5,22.4,84.1,22.4c93.7,0,169.7-76.4,169.7-170.6C803.3,603.7,795.2,574.8,781,549.8"/></g></svg>