<?xml version="1.0" ?><svg id="Layer_1" style="enable-background:new 0 0 1000 1000;" version="1.1" viewBox="0 0 1000 1000" xml:space="preserve" xmlns="http://www.w3.org/2000/svg" xmlns:xlink="http://www.w3.org/1999/xlink"><style type="text/css">
	.st0{fill:#5181B8;}
	.st1{fill-rule:evenodd;clip-rule:evenodd;fill:#FFFFFF;}
</style><title/><g><path class="st0" d="M500,1000L500,1000C223.9,1000,0,776.1,0,500v0C0,223.9,223.9,0,500,0h0c276.1,0,500,223.9,500,500v0   C1000,776.1,776.1,1000,500,1000z"/><path class="st1" d="M819,344.5c4.6-15.5,0-26.8-22.1-26.8H724c-18.5,0-27.1,9.8-31.7,20.6c0,0-37.1,90.4-89.6,149.1   c-17,17-24.7,22.4-34,22.4c-4.6,0-11.3-5.4-11.3-20.9V344.5c0-18.5-5.4-26.8-20.8-26.8H422c-11.6,0-18.6,8.6-18.6,16.8   c0,17.6,26.3,21.6,29,71.1v107.4c0,23.5-4.3,27.8-13.5,27.8c-24.7,0-84.8-90.8-120.5-194.7c-7-20.2-14-28.3-32.6-28.3h-72.9   c-20.8,0-25,9.8-25,20.6c0,19.3,24.7,115.1,115.1,241.8c60.3,86.5,145.1,133.4,222.4,133.4c46.3,0,52.1-10.4,52.1-28.4v-65.4   c0-20.8,4.4-25,19.1-25c10.8,0,29.4,5.4,72.6,47.1c49.4,49.4,57.6,71.6,85.4,71.6h72.9c20.8,0,31.2-10.4,25.2-31   c-6.6-20.5-30.2-50.2-61.5-85.5c-17-20.1-42.5-41.7-50.2-52.5c-10.8-13.9-7.7-20.1,0-32.4C720.9,512.1,809.7,387,819,344.5z" id="Logo"/></g></svg>