<?xml version="1.0" ?><svg id="Layer_1" style="enable-background:new 0 0 1000 1000;" version="1.1" viewBox="0 0 1000 1000" xml:space="preserve" xmlns="http://www.w3.org/2000/svg" xmlns:xlink="http://www.w3.org/1999/xlink"><style type="text/css">
	.st0{fill:#39475D;}
	.st1{fill:#FFFFFF;}
</style><title/><g><path class="st0" d="M500,1000L500,1000C223.9,1000,0,776.1,0,500v0C0,223.9,223.9,0,500,0h0c276.1,0,500,223.9,500,500v0   C1000,776.1,776.1,1000,500,1000z"/><path class="st1" d="M672.4,758.1c-19.9,21.3-66.1,35.7-107.5,36.4h-4.5c-139,0-169.1-102.2-169.1-161.8V467h-54.7   c-6.3,0-11.5-5.1-11.5-11.5c0,0,0,0,0,0v-78.2c0-8.3,5.2-15.6,13-18.4c71.3-25.1,93.7-87.4,97-134.7c0.9-12.6,7.5-18.8,18.5-18.8   h81.6c6.3,0,11.5,5.1,11.5,11.5v132.5h95.5c6.3,0,11.5,5.1,11.5,11.4v94c0,6.3-5.1,11.5-11.5,11.5h-96v153.2   c0,38.5,25.4,49.1,41,49.1c15-0.4,29.8-4.9,37.2-7.9c5.5-2.2,10.3-3.7,14.7-2.6c4,1,6.7,3.9,8.5,9.1l25.3,74   C674.9,747.2,676.6,753.6,672.4,758.1z"/></g></svg>