<?xml version="1.0" ?><svg id="Layer_1" style="enable-background:new 0 0 1000 1000;" version="1.1" viewBox="0 0 1000 1000" xml:space="preserve" xmlns="http://www.w3.org/2000/svg" xmlns:xlink="http://www.w3.org/1999/xlink"><style type="text/css">
	.st0{fill:#DB4437;}
	.st1{fill:#FFFFFF;}
</style><title/><g><path class="st0" d="M500,1000L500,1000C223.9,1000,0,776.1,0,500v0C0,223.9,223.9,0,500,0h0c276.1,0,500,223.9,500,500v0   C1000,776.1,776.1,1000,500,1000z"/><g><path class="st1" d="M762.4,461.8v-71.6h-52.5v71.6h-76.3v52.5h71.6v71.6h52.5v-71.6H834v-52.5H762.4z"/><path class="st1" d="M375.9,457.1v81.1h109.7c-9.5,47.7-52.5,85.9-109.7,85.9c-66.8,0-124.1-57.3-124.1-124.1    s57.3-124.1,124.1-124.1c28.6,0,57.3,9.5,76.3,28.6l62-62c-38.2-28.6-81.1-52.5-138.4-52.5C261.4,290.1,166,385.5,166,500    s95.4,209.9,209.9,209.9c119.3,0,200.4-85.9,200.4-205.2c0-14.3,0-33.4-4.8-47.7C571.6,457.1,375.9,457.1,375.9,457.1z"/></g></g></svg>