<?xml version="1.0" ?><svg data-name="Layer 1" id="Layer_1" viewBox="0 0 1000 1000" xmlns="http://www.w3.org/2000/svg"><defs><style>.cls-1{fill:#bd081c;}.cls-2{fill:#fff;}</style></defs><title/><rect class="cls-1" height="1000" width="1000"/><path class="cls-2" d="M500.49,150.49c-193.3,0-350,156.7-350,350,0,148.28,92.26,275,222.45,326-3.06-27.69-5.82-70.28,1.22-100.51,6.36-27.31,41-174,41-174s-10.47-21-10.47-52c0-48.67,28.21-85,63.33-85,29.86,0,44.28,22.42,44.28,49.31,0,30-19.12,74.92-29,116.53-8.25,34.84,17.47,63.25,51.83,63.25,62.2,0,110-65.6,110-160.28,0-83.8-60.22-142.39-146.2-142.39-99.58,0-158,74.69-158,151.89,0,30.08,11.59,62.34,26,79.87,2.86,3.47,3.28,6.51,2.43,10-2.66,11.06-8.56,34.83-9.72,39.69-1.53,6.41-5.08,7.77-11.71,4.69-43.71-20.35-71-84.26-71-135.6,0-110.4,80.22-211.8,231.26-211.8C629.65,280.27,724,366.79,724,482.42,724,603,648,700.12,542.39,700.12c-35.47,0-68.81-18.43-80.22-40.19,0,0-17.55,66.82-21.81,83.2-7.9,30.4-29.23,68.51-43.5,91.75a349.82,349.82,0,0,0,103.63,15.61c193.3,0,350-156.7,350-350S693.79,150.49,500.49,150.49Z"/></svg>