<?xml version="1.0" ?><svg data-name="Layer 1" id="Layer_1" viewBox="0 0 1000 1000" xmlns="http://www.w3.org/2000/svg" xmlns:xlink="http://www.w3.org/1999/xlink"><defs><style>.cls-1{fill:none;}.cls-2{fill:#fffc00;}.cls-3{clip-path:url(#clip-path);}.cls-4{fill:#fff;}</style><clipPath id="clip-path"><rect class="cls-1" height="502.04" width="534.69" x="232.66" y="248.98"/></clipPath></defs><title/><rect class="cls-2" height="1000" width="1000"/><g class="cls-3"><path class="cls-4" d="M503.12,745.13a27.3,27.3,0,0,1-3.92-.18c-.89,0-1.79.18-2.68.18-31,0-50.85-14.1-70.11-27.65-13.2-9.46-25.87-18.2-40.5-20.7A124.66,124.66,0,0,0,364.68,695a142,142,0,0,0-29.44,3.39,61,61,0,0,1-11.06,1.6c-3,0-6.24-.71-7.67-5.53-1.25-4.1-2.14-8.21-3-12.13-2.15-10-3.75-16.23-8-17-49.06-7.67-63.16-18-66.37-25.33a10.31,10.31,0,0,1-.71-3.21,5.32,5.32,0,0,1,4.64-5.71c75.46-12.49,109.36-89.56,110.78-93,0-.18,0-.18.18-.36,4.64-9.27,5.54-17.48,2.68-24.08-5.17-12.13-22.12-17.67-33.18-21.05-2.68-.9-5.36-1.61-7.32-2.5-22.3-8.74-24.26-17.84-23.37-22.48,1.43-7.85,12-13.38,20.52-13.38a12.69,12.69,0,0,1,6.06,1.25c10,4.63,19.09,7.13,26.94,7.13,10.71,0,15.53-4.46,16.06-5.17-.36-5.17-.53-10.53-.89-15.88-2.32-35.68-5-80.1,6.24-105.44,33.9-75.82,105.62-81.71,126.85-81.71.53,0,9.27-.18,9.27-.18h1.26c21.22,0,93.12,5.89,127,81.89,11.24,25.34,8.56,69.76,6.24,105.44l-.18,1.61c-.35,5-.53,9.81-.89,14.45.54.53,4.82,4.63,14.63,5.17,7.5-.36,16.06-2.68,25.34-7.14a20,20,0,0,1,7.85-1.6,21.89,21.89,0,0,1,9.09,1.78h.18c7.68,2.68,12.49,8,12.67,13.56.18,5.18-3.93,13-23.55,20.88-2,.71-4.64,1.6-7.31,2.49-11.24,3.57-28,8.92-33.19,21-2.85,6.61-2,14.81,2.68,24.09,0,.18,0,.18.18.36,1.42,3.21,35.32,80.46,110.79,92.95a5.57,5.57,0,0,1,4.64,5.7,10.33,10.33,0,0,1-.72,3.22c-3,7.31-17.13,17.66-66.37,25.15-3.92.54-5.52,5.89-8,16.77-.9,3.93-1.79,7.85-3,12-1.07,3.56-3.21,5.17-7,5.17h-.54a65.79,65.79,0,0,1-11.06-1.43,148.7,148.7,0,0,0-29.44-3.21,123.27,123.27,0,0,0-21.23,1.79c-14.8,2.49-27.29,11.24-40.5,20.69-19.44,13.91-39.42,28-70.29,28"/><path d="M504.91,249H494.38c-21.94,0-96.7,6.07-131.84,85.1-11.78,26.58-8.92,71.72-6.78,107.94.35,4.28.53,8.74.71,13-1.78,1.07-5.17,2.32-10.34,2.32-7,0-15.17-2.14-24.62-6.6a21.4,21.4,0,0,0-8.39-1.78c-10.88,0-23.91,7.13-25.87,17.84-1.43,7.67,2,18.91,26.76,28.72,2.32.89,5,1.78,7.67,2.68,10.17,3.21,25.69,8.2,29.8,18,2.14,5.17,1.25,11.77-2.5,19.62,0,.18-.18.36-.18.54-1.43,3.21-34.07,77.6-106.51,89.56A11.09,11.09,0,0,0,233,637.55a17.31,17.31,0,0,0,1.25,5c5.53,12.67,28.37,22.12,70.29,28.54,1.43,2,2.86,8.57,3.75,12.67.89,3.92,1.79,8.2,3,12.49s4.46,9.45,13,9.45a56.87,56.87,0,0,0,12.13-1.78,136.76,136.76,0,0,1,28.37-3.21,113.13,113.13,0,0,1,20.33,1.78c13.56,2.32,25,10.35,38.18,19.81C442.46,735.68,463.87,751,496.7,751a13.33,13.33,0,0,0,2.67-.18c1.08,0,2.5.18,3.93.18,32.83,0,54.23-15.17,73.33-28.72,13.38-9.46,24.79-17.49,38.18-19.81a134.24,134.24,0,0,1,20.33-1.78,138.47,138.47,0,0,1,28.37,3,59,59,0,0,0,12.13,1.43h.71c6.25,0,10.53-3.21,12.32-9.28,1.24-4.28,2.14-8.39,3-12.31.89-4.1,2.32-10.7,3.74-12.67,41.75-6.42,64.77-15.87,70.3-28.54a17.31,17.31,0,0,0,1.25-5,11.09,11.09,0,0,0-9.28-11.59c-72.61-12-105.26-86.53-106.51-89.56,0-.18-.18-.36-.18-.54-3.93-7.85-4.82-14.45-2.5-19.62,4.11-9.82,19.63-14.81,29.8-18,2.85-.89,5.53-1.78,7.67-2.68,18-7.14,27.12-15.88,26.94-26-.18-8-6.42-15.17-16.24-18.56a29,29,0,0,0-11.06-2.14,23.21,23.21,0,0,0-10.17,2.14c-8.56,4.1-16.41,6.24-23,6.6-4.46-.18-7.32-1.25-8.92-2.32.18-3.74.36-7.49.71-11.42l.18-1.6c2.32-36.22,5.17-81.36-6.78-107.94C601.78,255.05,527,249,504.91,249m0,11.06c20.16,0,89.38,5.36,122,78.5,10.71,24.09,8,67.8,5.72,102.76-.36,5.54-.72,10.89-.9,16.06l-.18,2.14,1.43,1.61c.54.71,6.25,6.42,18.56,6.95h.35c8.21-.35,17.49-2.85,27.48-7.49a12.77,12.77,0,0,1,5.53-1.07,22.89,22.89,0,0,1,7,1.25l.36.18c5.36,1.78,8.92,5.35,9.1,8.56,0,1.79-1.25,8.21-20,15.53-1.78.71-4.28,1.42-7,2.31-12.13,3.93-30.5,9.64-36.75,24.27-3.57,8.2-2.5,17.84,2.85,28.72,2.14,5.18,36.94,83.32,114.9,96.16a4.44,4.44,0,0,1-.36,1.25c-1.25,3-9.81,13.92-62.08,21.95-8.21,1.24-10.17,10.52-12.49,21.05-.89,3.74-1.61,7.67-2.86,11.59-.35,1.25-.35,1.25-1.78,1.25h-.53a67.52,67.52,0,0,1-10-1.25,156.81,156.81,0,0,0-30.5-3.21,152.84,152.84,0,0,0-22.13,1.79c-16,2.67-29.08,12-42.81,21.58-18.56,13-37.65,26.58-66.91,26.58a27.54,27.54,0,0,1-3.74-.17h-2.86c-29.26,0-48.35-13.56-66.9-26.59-13.74-9.81-26.76-18.91-42.82-21.58a135,135,0,0,0-22.12-1.79A151.53,151.53,0,0,0,334,692.32a52.23,52.23,0,0,1-10,1.43c-2,0-2-.18-2.32-1.43-1.25-3.92-2-8-2.85-11.77-2.32-10.71-4.28-20-12.49-21.23-52.27-8-60.66-18.91-62.09-22a4.36,4.36,0,0,1-.35-1.25c78.14-12.84,112.75-91,114.89-96.16,5.35-10.88,6.24-20.51,2.86-28.72C355.4,496.61,337,490.9,324.89,487c-2.85-.9-5.17-1.61-6.95-2.32-15.7-6.25-20.7-12.49-20-16.24.9-4.46,8.39-8.92,15-8.92a7.78,7.78,0,0,1,3.75.72c10.7,5,20.69,7.67,29.26,7.67,13.56,0,19.62-6.25,20.34-7l1.42-1.61-.18-2.14c-.35-5.17-.53-10.52-.89-16.05-2.14-35.15-5-78.68,5.71-102.77,32.47-73,101.51-78.5,121.85-78.5h9.28a5,5,0,0,0,1.43.18"/></g></svg>