<?xml version="1.0" ?><svg data-name="Layer 1" id="Layer_1" viewBox="0 0 1000 1000" xmlns="http://www.w3.org/2000/svg"><defs><style>.cls-1{fill:#0078d7;}.cls-2{fill:#fff;}</style></defs><title/><rect class="cls-1" height="1000" width="1000"/><path class="cls-2" d="M501.16,683.55c-101.38,0-147.69-51.6-147.69-89.52,0-19.44,15.23-32.82,34.7-32.82,43.37,0,32.08,65.06,113,65.06,41.42,0,65.67-24.92,65.67-48.29,0-14.07-8.06-29.71-35.33-36.55l-90.15-22.85C368.77,500.13,356,459.73,356,422.3c0-77.76,71.07-105.86,138.82-105.86,62.36,0,136.5,34.41,136.5,81.07,0,20-16.76,30.87-36.24,30.87-37,0-30.86-52.07-105.42-52.07-37,0-56.53,17.33-56.53,41.68s28.63,32.53,54,38.4l66.72,15.05C627,488,646.52,530.79,646.52,571.6c0,63.19-48.93,111.95-145.36,111.95M781,549.84a290.19,290.19,0,0,0,4.3-49.85c0-158.47-127.76-287-285.35-287a284.94,284.94,0,0,0-49.56,4.3,167.89,167.89,0,0,0-84.11-22.4c-93.7,0-169.66,76.4-169.66,170.63a170.32,170.32,0,0,0,22.3,84.6,288,288,0,0,0-4.3,49.83c0,158.48,127.76,287,285.33,287a285.17,285.17,0,0,0,49.58-4.32,167.91,167.91,0,0,0,84.09,22.41c93.7,0,169.68-76.39,169.68-170.64A170.59,170.59,0,0,0,781,549.84"/></svg>