<?xml version="1.0" ?><svg data-name="Layer 1" id="Layer_1" viewBox="0 0 1000 1000" xmlns="http://www.w3.org/2000/svg"><defs><style>.cls-1{fill:#00b389;}.cls-2{fill:#1b896d;}.cls-3{fill:#fff;}</style></defs><title/><rect class="cls-1" height="1000" width="1000"/><path class="cls-2" d="M488.15,363.86c0,91.31,42.69,169.69,113.07,205.4C571.63,628.47,534,680.62,494.69,719.92,423.43,633.77,359,518.85,332.57,294.57V283.06H227.44v11.51C276,668.09,420.76,787,459,809.86c21.65,13,40.29,12.38,60.08,1.24,31.08-17.67,124.39-111,176.11-220.25A347.57,347.57,0,0,0,769,582.43V508.89a202.67,202.67,0,0,1-45.16,5.29c-77.94,0-138-54.44-138-149.09,0-46.39,17.94-70.52,43.3-70.52,24.13,0,40.21,21.65,40.21,65.58,0,21.83,2,49-11.62,57v11.51s24,41.9,89.69,29c13.95-31,21.53-71.06,21.53-106.23V340c-3.68-87.82-51.78-138.19-136.72-138.19-88,0-140.81,62.81-144.13,150.56Z"/><path class="cls-3" d="M769,497.38a202.63,202.63,0,0,1-45.16,5.28c-77.94,0-138-54.43-138-149.08,0-46.39,17.94-70.52,43.3-70.52,24.13,0,40.21,21.65,40.21,65.58,0,25-6.68,52.34-11.62,68.53,0,0,24,41.9,89.69,29C761.42,415.25,769,375.15,769,340c0-94.65-48.25-149.7-136.72-149.7-90.92,0-144.13,69.9-144.13,162.07,0,91.31,42.69,169.69,113.07,205.4C571.63,617,534,669.11,494.69,708.41,423.43,622.26,359,507.34,332.57,283.06H227.44C276,656.58,420.76,775.51,459,798.35c21.65,13,40.29,12.38,60.08,1.24,31.08-17.68,124.39-111,176.11-220.25A347.57,347.57,0,0,0,769,570.92Z"/></svg>