<?xml version="1.0" ?><svg id="Layer_1" style="enable-background:new 0 0 1000 1000;" version="1.1" viewBox="0 0 1000 1000" xml:space="preserve" xmlns="http://www.w3.org/2000/svg" xmlns:xlink="http://www.w3.org/1999/xlink"><style type="text/css">
	.st0{fill:#25D366;}
	.st1{fill:#FFFFFF;}
</style><rect class="st0" height="1000" width="1000" x="0"/><title/><path class="st1" d="M733.9,267.2c-61.5-61.9-145.2-96.6-232.5-96.4c-181.1,0-328.5,147.4-328.6,328.6  c-0.1,57.7,15.1,114.3,43.9,164.3L170.1,834l174.2-45.7c48.2,26.2,102.1,40,157,40h0.1c181.1,0,328.5-147.4,328.6-328.6  C830.3,412.5,795.7,328.8,733.9,267.2z M501.5,772.8h-0.1c-48.9,0-96.9-13.1-139-38.1l-10-5.9L249,755.9l27.6-100.8l-6.5-10.3  c-27.4-43.5-41.8-93.9-41.8-145.4c0.1-150.6,122.6-273.1,273.2-273.1c150.9,0.1,273.1,122.5,273,273.3  C774.5,650.3,652,772.8,501.5,772.8z"/><path class="st1" d="M651.3,568.2c-8.2-4.1-48.6-24-56.1-26.7s-13-4.1-18.5,4.1s-21.2,26.7-26,32.2s-9.6,6.2-17.8,2  s-34.7-12.8-66-40.8c-24.4-21.8-40.9-48.7-45.7-56.9s-0.5-12.7,3.6-16.8c3.7-3.7,8.2-9.6,12.3-14.4s5.5-8.2,8.2-13.7  s1.4-10.3-0.7-14.4s-18.5-44.5-25.3-61c-6.7-16-13.4-13.8-18.5-14.1c-4.8-0.2-10.3-0.3-15.7-0.3s-14.4,2-21.9,10.3  s-28.8,28.1-28.8,68.6s29.4,79.5,33.5,84.9c4.1,5.5,57.9,88.4,140.3,124c15.3,6.6,30.9,12.4,46.8,17.3c19.7,6.2,37.6,5.4,51.7,3.3  c15.8-2.4,48.6-19.9,55.4-39s6.8-35.6,4.8-39S659.5,572.4,651.3,568.2z"/></svg>