<?xml version="1.0" ?><svg data-name="Layer 1" id="Layer_1" viewBox="0 0 1000 1000" xmlns="http://www.w3.org/2000/svg"><defs><style>.cls-1{fill:#db4437;}.cls-2{fill:#fff;}</style></defs><title/><rect class="cls-1" height="1000" width="1000"/><path class="cls-2" d="M762.43,461.83V390.26H709.94v71.57H633.6v52.48h71.57v71.58h52.49V514.31H834V461.83Z"/><path class="cls-2" d="M375.94,457.06v81.11H485.69c-9.55,47.72-52.49,85.89-109.75,85.89-66.8,0-124-57.26-124-124.06s57.25-124.06,124.05-124.06c28.63,0,57.26,9.55,76.35,28.63l62-62c-38.17-28.63-81.11-52.48-138.37-52.48C261.43,290.06,166,385.49,166,500s95.43,209.94,209.94,209.94c119.29,0,200.4-85.88,200.4-205.17,0-14.31,0-33.4-4.77-47.71Z"/></svg>