<?xml version="1.0" ?><svg id="Layer_1" style="enable-background:new 0 0 1000 1000;" version="1.1" viewBox="0 0 1000 1000" xml:space="preserve" xmlns="http://www.w3.org/2000/svg" xmlns:xlink="http://www.w3.org/1999/xlink"><style type="text/css">
	.st0{fill:#FF643C;}
	.st1{fill:#FFFFFF;}
</style><title/><g><path class="st0" d="M500,1000L500,1000C223.9,1000,0,776.1,0,500v0C0,223.9,223.9,0,500,0h0c276.1,0,500,223.9,500,500v0   C1000,776.1,776.1,1000,500,1000z"/><path class="st1" d="M404.1,586.5c-9.1,0-18-0.9-26.8-2.7c-8.8-1.8-17-4.3-24.5-7.7c-8.4-3.9-15.5-8.6-21.3-14   c-5.7-5.5-9.9-11.7-12.4-18.6c-2-6.2-2-12.1,0.1-17.6c2.1-5.5,5.9-9.4,11.3-11.8c5.4-2.4,10.2-3.5,14.3-3.4s7.6,1.1,10.4,2.9   c2.8,1.9,5.2,3.9,7.2,6.1c2.4,2.7,4.8,5.1,7.3,7.1c10.5,8.4,22.1,12.6,34.9,12.6c6.6,0.2,12.9-0.6,18.8-2.3s9.1-5.4,9.5-11.1   c0-4.7-1.8-8.3-5.4-10.6s-9.1-4.6-16.3-6.8l-24.3-8.3c-30.2-10.3-48.6-21.5-55.2-33.8s-9.2-23.2-7.8-33v-0.3   c0.7-15.7,8.9-29,24.5-40s34.8-16.7,57.4-17.2c18,0,33.6,2.9,46.8,8.6c13.2,5.7,23,13.9,29.6,24.5c4.4,6.9,5.9,13.1,4.6,18.5   c-0.8,2.9-2.2,5.2-4.2,7.1c-1.9,1.9-3.8,3.3-5.7,4.3c-7.4,3.7-13.5,5.6-18.2,5.6c-3.5,0-6.8-0.8-9.9-2.5c-3-1.7-6.3-3.8-9.9-6.3   l-2-1.5c-8.6-6.2-17.3-9.4-26.1-9.4c-7.6,0-13.5,1.2-17.8,3.5c-4.3,2.4-6.5,5.5-6.5,9.5s1.7,7.1,5.2,9.4c3.5,2.3,8.1,4.3,13.8,5.9   l32.6,10.4c22.4,6.9,38.5,17.4,48.1,31.4c4,6.1,6.7,11.7,7.8,16.8c1.2,5.1,1.7,9.1,1.5,12c0,9.8-2.4,18.7-7.3,26.7   s-12.1,14.9-21.5,20.6c-8.4,4.9-18,8.7-28.8,11.4C427.2,585.2,415.9,586.5,404.1,586.5L404.1,586.5z M650.8,612.1   c-0.2-4.6,0.8-8,2.8-10.2c2-2.3,4.2-3.8,6.6-4.4c4-1.5,7.6-3.6,10.8-6.3s5.5-5.9,7.2-9.6c1.7-4.2,3-9.2,4-14.9   c0.5-2.4,0.8-4.6,1-6.8c0.3-1.3,0.5-2.7,0.5-4l0.8-4l1.5-11.6l0.8-4c0-1.3,0.2-2.7,0.5-4l0.8-5.1c0-1,0.2-2,0.5-3l0.3-2.5l2.8-19.7   l0.8-6.6l1.8-11.6c0.3-0.5,0.3-0.8,0-0.8c0.2-0.2-0.1-0.3-0.8-0.3h-7.8c-2.9,0-4.9-1.3-6.1-3.8c-0.3-0.8-0.5-1.8-0.5-2.8   c0.3-3.5,0.8-7.1,1.5-10.6c0.5-2,1.6-3.5,3.3-4.6c1.7-1,3.5-1.6,5.3-1.8h8.3c0.3-1,0.5-1.9,0.5-2.8c0.3-2.4,0.8-4.6,1.3-6.6   c1.2-5.9,3.3-11.2,6.3-15.9c3.9-6.1,8.9-10.6,14.9-13.7l4.6-2c1.5-0.8,3.2-1.4,5.1-1.8c2.4-0.7,5.4-1.3,9.1-1.8   c4-0.5,7.8-0.8,11.4-0.8h2.3c3,0.2,6,0.5,8.9,1c1.5,0.2,2.9,0.9,4,2.3c1.2,1.3,1.7,3.1,1.6,5.2c-0.1,2.1-0.4,4.3-0.9,6.7   c-0.2,1.5-0.4,3-0.8,4.6l-0.3,1.3c-0.2,1.2-0.8,2.2-1.8,3c-1,0.8-2.1,1.3-3.3,1.3h-8.6c-1.2-0.2-2.5-0.3-4-0.3h-2.5   c-2.2,0.2-4.5,0.8-6.8,2c-3.2,1.5-5.7,4-7.3,7.6c-1.3,2.7-2.3,6.2-2.8,10.6h41.2v0.3h0.3v-0.3h0.3c2.2,0.2,4,1,5.4,2.5   c1.4,1.5,2.2,3.5,2.2,5.8c-0.2,0.8-0.3,1.7-0.3,2.5v0.5c0.3-0.3,0.6-0.5,0.8-0.5l2.8-2.5c1.7-1.3,3.5-2.7,5.6-4   c2-1.3,4.2-2.4,6.6-3.3c3.2-1.2,6.3-1.9,9.4-2.3c3-0.3,5.7-0.5,7.8-0.5c3.4,0,5.1,0.1,5.3,0.3c3.2,0.2,6.6,1.2,10.1,3   c4,2.2,7.3,5.5,9.6,9.9l1,2.5l1.5-1.5c0.5-0.7,1.2-1.3,2-1.8c7.9-6.9,15.6-11,23-12.1c2-0.3,4.2-0.5,6.6-0.5s4.9,0.2,7.6,0.5   c4,0.5,7.8,1.6,11.1,3.3c3.7,2,6.5,5,8.5,8.9s3.1,8.3,3.4,13.2c0.2,4.2-0.1,8.5-0.8,12.9v0.8l-1,8.9l-0.8,4.3l-0.5,3.8   c-0.3,1.3-0.6,2.7-0.8,4.2c-0.2,1.4-0.3,2.8-0.3,4.2l-1,5.6l-0.5,4l-0.5,2.5l-0.3,2.8l-1.5,10.6l-1,8.6l-1,5.6l-1.8,14.2l-0.3,0.5   c-0.2,2-0.6,4-1.3,5.8c-1,2.4-2.7,3.9-5.1,4.6c-1.3,0.3-2.9,0.5-4.6,0.5h-13.4c-3,0-5.1-1.3-6.3-3.8c-0.5-1.3-0.8-2.4-0.8-3   l0.8-5.8l0.5-2.3v-0.8c0.3-1.2,0.5-2.3,0.5-3.3c0.3-1.5,0.5-3,0.5-4.6c0.5-2.5,0.8-5,1-7.3c0.5-3,0.9-6.1,1.3-9.1l0.8-4.6l1.8-13.4   l0.5-3c0.2-2.5,0.5-4.9,1-7.1c0.3-1.5,0.5-3,0.5-4.3c0.5-2.4,0.8-4.6,1-6.8l0.3-0.5c0.5-4.4,0.9-8.9,1.3-13.4   c0.3-2.9-0.2-5.3-1.5-7.3s-3-3.2-5.1-3.5c-1.3-0.3-2.7-0.5-4-0.5c-1.9,0-3.7,0.3-5.6,1l-1.5,0.8c-3.7,1.5-7.3,4.1-10.9,7.8   c-0.2,0.3-0.5,0.7-1,1c-0.5,0.7-0.8,1.4-1,2.3l-1.3,11.6l-2.5,16.9c0,1.3-0.1,2.7-0.3,4.2c-0.2,1.4-0.4,2.8-0.8,4.2l-0.8,5.6   l-0.5,2.8c0,1.5-0.2,2.9-0.5,4l-0.5,3.8c-0.5,3.4-0.9,6.6-1.3,9.6l-0.8,5.8c-0.2,2-0.5,4.1-1,6.3c0,0.7-0.1,1.4-0.3,2.3   c-0.2,2.2-0.5,4.5-1,6.8c-1.2,4.9-4.1,7.4-8.9,7.6h-14.7c-3.7,0-6-1.6-6.8-4.8c-0.3-1.2-0.4-2.5-0.3-4v-0.5c0.3-1,0.5-2,0.5-3   l0.5-2l1.5-11.9c0.3-2.9,0.8-5.7,1.3-8.6l0.5-4.6l2-13.2l1.8-13.7l1.8-10.9c0-1.5,0.2-2.9,0.5-4c0.8-4.9,1.1-9.7,0.8-14.4   c-0.2-3.9-1.7-6.4-4.6-7.6c-1.9-0.8-3.7-1.3-5.6-1.3l-2.3,0.3c-3.9,0.7-7.3,2.1-10.1,4.2c-2.9,2.1-5.4,4.3-7.6,6.7   c-0.5,0.5-0.8,1.2-1,2l-0.3,3.3c-0.3,1.3-0.5,2.7-0.5,4l-1.5,8.6v1l-0.5,2.8l-0.5,4.6c-0.2,2.4-0.5,4.7-1,7.1   c-0.3,3-0.8,6.1-1.3,9.1l-0.5,4.3l-4.3,30.1c-0.3,3-0.8,6.2-1.5,9.4c-0.3,1.7-1.1,3.1-2.2,4.3c-1.1,1.2-2.4,1.9-3.9,2.3   c-1,0.3-2.2,0.5-3.5,0.5h-14.4c-3.2,0-5.2-1.4-6.1-4.3c-0.3-1.5-0.4-3.2-0.3-5.1c0-1.2,0.2-2.3,0.5-3.3l0.3-1.8   c0.7-4.6,1.3-8.9,1.8-13.2c0.3-1.3,0.5-2.7,0.5-4l0.8-4.6c0-1.5,0.2-3,0.5-4.3s0.5-2.6,0.5-3.8l0.8-4.3c0-1.2,0.2-2.5,0.5-4   l3.3-24.3l1-6.3l0.8-5.8c0.3-1.3,0.5-2.8,0.5-4.3c0.3-1.2,0.5-2.5,0.5-4l1.3-7.1h-21c-0.5,0-0.8,0.3-1,1l-1,6.3l-0.3,2.5   c-0.2,0.3-0.3,0.8-0.3,1.3l-0.5,2.5c0,1.5-0.2,3-0.5,4.3c-0.2,2.4-0.5,4.8-1,7.3l-1.5,11.4l-0.8,4.3c0,1.5-0.2,3-0.5,4.3   c-0.3,1.3-0.5,2.8-0.5,4.3l-0.8,4l-2.3,15.9l-2,15.9c-4.4,24.8-11.3,40.3-20.7,46.7c-9.4,6.3-17.4,9.4-23.8,9.2   c-3.5,0.5-6.9,0.1-10.1-1.3c-1.9-0.7-3.5-1.9-4.9-3.5C652,617.2,651.1,615,650.8,612.1L650.8,612.1z M277.1,378.3   c-14.5,0.7-23.3,4.5-26.4,11.5c-3.1,7-4.3,13.3-3.7,18.8v4.3l-1.5-4c0-0.2-0.8-1.5-2.5-4c-1.7-2.5-4.6-5.5-8.6-8.9   c-3.7-3.2-9.3-6.2-16.7-8.9s-17-4.1-28.6-4.3c-25.6,0.7-46.8,10.3-63.4,28.8s-25.2,42.2-25.7,70.8c0.5,29.7,8.6,53.9,24.4,72.7   c15.8,18.8,36.1,28.5,61.1,29.2h3.3c13.2-0.7,25-3.8,35.7-9.4c8.9-4.7,15.9-11.1,21-19.2l1.5-2.8v5.3c-0.3,6.4,1.3,12.6,5.1,18.6   c3.7,6,12.1,9.1,25,9.5c12.8,0,21.5-4.6,26.1-13.9c1.9-3.9,3-7.7,3.3-11.5c0.3-3.8,0.5-6.8,0.5-9V420.3c0.7-9.1-0.5-18.2-3.7-27.3   C300.2,383.9,291.4,379,277.1,378.3L277.1,378.3z M199.2,530.1c-11.6-0.2-20.6-4.3-26.9-12.4c-6.3-8.1-9.5-18.7-9.5-31.9   c0-15.3,3.2-26.6,9.5-33.6c6.3-7.1,15.3-10.5,26.9-10.4c10.5-0.2,18.7,3.2,24.8,10c6.1,6.8,9.2,18.2,9.4,34   c-0.2,13.3-3.3,24-9.4,32C217.9,525.9,209.6,530,199.2,530.1L199.2,530.1z M537.2,586.5c-13.8-0.7-22.4-5.1-25.7-13.4   c-3.3-8.3-4.8-16.5-4.4-24.8V415.3c-0.3-8.4,1.1-16.9,4.4-25.4c3.3-8.5,11.8-13.1,25.7-13.8c10.5,0,18.1,2.5,23,7.6   c3.5,3.9,5.7,8.2,6.3,13c0.7,4.8,0.9,9.1,0.8,13c-0.2,1-0.3,1.9-0.3,2.8v26.3l37.7-42.8c2.5-2.9,4.9-5.2,7.1-7.1   c6.9-6.1,13.5-9.1,19.7-9.1c5.1,0,10.2,1.8,15.4,5.3c2.2,1.5,4,3,5.6,4.6c6.1,6.9,8.6,13.6,7.6,20.1s-3.8,11.9-8.3,16.3l-41.2,44.3   l51.1,73.6c4.2,5.9,5.9,12.3,5.1,19.1c-0.8,6.8-4.1,12.7-9.9,17.6c-4.9,3.9-10.6,5.8-17.2,5.8h-1c-4.6-0.2-8.8-1.4-12.8-3.7   c-4-2.3-7.3-5.4-10-9.2L567,501.8v46c0.5,9.8-1,18.6-4.6,26.3S550.5,586,537.2,586.5z"/></g></svg>