<?xml version="1.0" ?><svg id="Layer_1" style="enable-background:new 0 0 1000 1000;" version="1.1" viewBox="0 0 1000 1000" xml:space="preserve" xmlns="http://www.w3.org/2000/svg" xmlns:xlink="http://www.w3.org/1999/xlink"><style type="text/css">
	.st0{fill:#FFFC00;}
	.st1{clip-path:url(#SVGID_2_);fill:#FFFFFF;}
	.st2{clip-path:url(#SVGID_2_);}
</style><title/><g><path class="st0" d="M500,1000L500,1000c276.1,0,500-223.9,500-500v0C1000,223.9,776.1,0,500,0h0C223.9,0,0,223.9,0,500v0   C0,776.1,223.9,1000,500,1000z"/><g><defs><rect height="502" id="SVGID_1_" width="534.7" x="232.7" y="249"/></defs><clipPath id="SVGID_2_"><use style="overflow:visible;" xlink:href="#SVGID_1_"/></clipPath><path class="st1" d="M503.1,745.1c-1.4,0-2.7,0-3.9-0.2c-0.9,0-1.8,0.2-2.7,0.2c-31,0-50.8-14.1-70.1-27.7    c-13.2-9.5-25.9-18.2-40.5-20.7c-7.1-1.2-14.5-1.8-21.2-1.8c-12.5,0-22.3,2-29.4,3.4c-4.3,0.9-8.2,1.6-11.1,1.6    c-3,0-6.2-0.7-7.7-5.5c-1.2-4.1-2.1-8.2-3-12.1c-2.1-10-3.7-16.2-8-16.9c-49.1-7.7-63.2-18-66.4-25.3c-0.4-1.1-0.7-2.1-0.7-3.2    c-0.2-2.9,1.8-5.4,4.6-5.7c75.5-12.5,109.4-89.6,110.8-93c0-0.2,0-0.2,0.2-0.4c4.6-9.3,5.5-17.5,2.7-24.1    c-5.2-12.1-22.1-17.7-33.2-21.1c-2.7-0.9-5.4-1.6-7.3-2.5c-22.3-8.7-24.3-17.8-23.4-22.5c1.4-7.9,12-13.4,20.5-13.4    c2.3,0,4.5,0.4,6.1,1.3c10,4.6,19.1,7.1,26.9,7.1c10.7,0,15.5-4.5,16.1-5.2c-0.4-5.2-0.5-10.5-0.9-15.9    c-2.3-35.7-5-80.1,6.2-105.4c33.9-75.8,105.6-81.7,126.8-81.7c0.5,0,9.3-0.2,9.3-0.2h1.3c21.2,0,93.1,5.9,127,81.9    c11.2,25.3,8.6,69.8,6.2,105.4l-0.2,1.6c-0.4,5-0.5,9.8-0.9,14.5c0.5,0.5,4.8,4.6,14.6,5.2c7.5-0.4,16.1-2.7,25.3-7.1    c2.7-1.2,5.9-1.6,7.9-1.6c3.2,0,6.4,0.5,9.1,1.8h0.2c7.7,2.7,12.5,8,12.7,13.6c0.2,5.2-3.9,13-23.6,20.9c-2,0.7-4.6,1.6-7.3,2.5    c-11.2,3.6-28,8.9-33.2,21.1c-2.9,6.6-2,14.8,2.7,24.1c0,0.2,0,0.2,0.2,0.4c1.4,3.2,35.3,80.5,110.8,92.9c2.9,0.5,4.8,3,4.6,5.7    c0,1.1-0.4,2.1-0.7,3.2c-3,7.3-17.1,17.7-66.4,25.2c-3.9,0.5-5.5,5.9-8,16.8c-0.9,3.9-1.8,7.8-3,12c-1.1,3.6-3.2,5.2-7,5.2h-0.5    c-2.7,0-6.2-0.5-11.1-1.4c-8.4-1.6-17.7-3.2-29.4-3.2c-7,0-14.1,0.5-21.2,1.8c-14.8,2.5-27.3,11.2-40.5,20.7    C554,731,534,745.1,503.1,745.1"/><path class="st2" d="M504.9,249L504.9,249h-1.2h-9.3c-21.9,0-96.7,6.1-131.8,85.1c-11.8,26.6-8.9,71.7-6.8,107.9    c0.4,4.3,0.5,8.7,0.7,13c-1.8,1.1-5.2,2.3-10.3,2.3c-7,0-15.2-2.1-24.6-6.6c-2.5-1.1-5.4-1.8-8.4-1.8c-10.9,0-23.9,7.1-25.9,17.8    c-1.4,7.7,2,18.9,26.8,28.7c2.3,0.9,5,1.8,7.7,2.7c10.2,3.2,25.7,8.2,29.8,18c2.1,5.2,1.2,11.8-2.5,19.6c0,0.2-0.2,0.4-0.2,0.5    c-1.4,3.2-34.1,77.6-106.5,89.6c-5.5,0.9-9.6,5.9-9.3,11.6c0.2,1.6,0.5,3.4,1.2,5c5.5,12.7,28.4,22.1,70.3,28.5    c1.4,2,2.9,8.6,3.7,12.7c0.9,3.9,1.8,8.2,3,12.5c1.2,4.3,4.5,9.5,13,9.5c3.4,0,7.5-0.7,12.1-1.8c7-1.4,16.6-3.2,28.4-3.2    c6.6,0,13.6,0.5,20.3,1.8c13.6,2.3,25,10.3,38.2,19.8c19.1,13.4,40.5,28.7,73.3,28.7c0.9,0,1.8,0,2.7-0.2c1.1,0,2.5,0.2,3.9,0.2    c32.8,0,54.2-15.2,73.3-28.7c13.4-9.5,24.8-17.5,38.2-19.8c7-1.1,13.7-1.8,20.3-1.8c11.4,0,20.3,1.4,28.4,3    c5,1.1,9.1,1.4,12.1,1.4h0.4h0.4c6.2,0,10.5-3.2,12.3-9.3c1.2-4.3,2.1-8.4,3-12.3c0.9-4.1,2.3-10.7,3.7-12.7    c41.7-6.4,64.8-15.9,70.3-28.5c0.7-1.6,1.1-3.4,1.2-5c0.4-5.7-3.7-10.7-9.3-11.6c-72.6-12-105.3-86.5-106.5-89.6    c0-0.2-0.2-0.4-0.2-0.5c-3.9-7.8-4.8-14.4-2.5-19.6c4.1-9.8,19.6-14.8,29.8-18c2.9-0.9,5.5-1.8,7.7-2.7c18-7.1,27.1-15.9,26.9-26    c-0.2-8-6.4-15.2-16.2-18.6c-3.4-1.4-7.3-2.1-11.1-2.1c-2.7,0-6.6,0.4-10.2,2.1c-8.6,4.1-16.4,6.2-23,6.6    c-4.5-0.2-7.3-1.2-8.9-2.3c0.2-3.7,0.4-7.5,0.7-11.4l0.2-1.6c2.3-36.2,5.2-81.4-6.8-107.9C601.8,255,527,249,504.9,249 M504.9,260    c20.2,0,89.4,5.4,122,78.5c10.7,24.1,8,67.8,5.7,102.8c-0.4,5.5-0.7,10.9-0.9,16.1l-0.2,2.1l1.4,1.6c0.5,0.7,6.2,6.4,18.6,7h0.2    h0.2c8.2-0.4,17.5-2.9,27.5-7.5c1.4-0.7,3.4-1.1,5.5-1.1c2.3,0,4.8,0.5,7,1.2l0.4,0.2c5.4,1.8,8.9,5.4,9.1,8.6    c0,1.8-1.2,8.2-20,15.5c-1.8,0.7-4.3,1.4-7,2.3c-12.1,3.9-30.5,9.6-36.8,24.3c-3.6,8.2-2.5,17.8,2.9,28.7    c2.1,5.2,36.9,83.3,114.9,96.2c0,0.4-0.2,0.7-0.4,1.3c-1.2,3-9.8,13.9-62.1,21.9c-8.2,1.2-10.2,10.5-12.5,21.1    c-0.9,3.7-1.6,7.7-2.9,11.6c-0.4,1.2-0.4,1.2-1.8,1.2h-0.5c-2.3,0-5.9-0.5-10-1.2c-7.5-1.4-17.7-3.2-30.5-3.2    c-7.3,0-14.8,0.7-22.1,1.8c-16.1,2.7-29.1,12-42.8,21.6c-18.6,13-37.6,26.6-66.9,26.6c-1.2,0-2.5,0-3.7-0.2h-0.4h-0.4h-2.1    c-29.3,0-48.3-13.6-66.9-26.6c-13.7-9.8-26.8-18.9-42.8-21.6c-7.5-1.2-15-1.8-22.1-1.8c-13,0-23.2,2-30.5,3.4    c-4.1,0.9-7.7,1.4-10,1.4c-2,0-2-0.2-2.3-1.4c-1.2-3.9-2-8-2.9-11.8c-2.3-10.7-4.3-20-12.5-21.2c-52.3-8-60.7-18.9-62.1-21.9    c-0.2-0.5-0.4-0.9-0.4-1.2c78.1-12.8,112.8-91,114.9-96.2c5.4-10.9,6.2-20.5,2.9-28.7c-6.2-14.6-24.6-20.3-36.8-24.3    c-2.9-0.9-5.2-1.6-7-2.3c-15.7-6.2-20.7-12.5-20-16.2c0.9-4.5,8.4-8.9,15-8.9c1.4,0,2.9,0.2,3.7,0.7c10.7,5,20.7,7.7,29.3,7.7    c13.6,0,19.6-6.2,20.3-7l1.4-1.6l-0.2-2.1c-0.4-5.2-0.5-10.5-0.9-16.1c-2.1-35.1-5-78.7,5.7-102.8c32.5-73,101.5-78.5,121.9-78.5    h9.3C504.2,260,504.5,260,504.9,260"/></g></g></svg>